<?xml version="1.0" standalone="no"?>
<!DOCTYPE svg PUBLIC "-//W3C//DTD SVG 20010904//EN"
 "http://www.w3.org/TR/2001/REC-SVG-20010904/DTD/svg10.dtd">
<svg version="1.0" xmlns="http://www.w3.org/2000/svg"
 width="550.000000pt" height="550.000000pt" viewBox="0 0 550.000000 550.000000"
 preserveAspectRatio="xMidYMid meet">
<metadata>
Created by potrace 1.14, written by Peter Selinger 2001-2017
</metadata>
<g transform="translate(0.000000,550.000000) scale(0.100000,-0.100000)"
fill="#000000" stroke="none">
<path d="M0 2750 l0 -1380 2750 0 2750 0 0 1380 0 1380 -2750 0 -2750 0 0
-1380z m4719 983 c6 -69 9 -128 7 -130 -4 -5 -145 -43 -158 -43 -5 0 -8 14 -8
30 0 27 -3 30 -30 30 l-30 0 20 33 c26 43 26 45 -15 53 -44 8 -47 12 -33 56
10 34 13 36 117 66 58 17 109 31 112 31 3 1 11 -56 18 -126z m-1115 5 c3 -46
8 -247 12 -448 3 -201 7 -394 9 -429 3 -52 -1 -74 -22 -120 -14 -31 -68 -164
-120 -296 -53 -132 -97 -242 -99 -244 -3 -4 -206 28 -212 34 -3 2 41 124 97
270 l102 266 -229 352 c-126 194 -232 358 -236 365 -5 9 25 27 99 62 59 28
110 50 114 50 3 0 69 -106 146 -235 76 -129 141 -232 143 -230 2 2 -3 135 -13
295 -9 160 -15 293 -13 295 6 5 203 95 209 95 4 0 9 -37 13 -82z m822 12 c-3
-11 -9 -29 -12 -39 -5 -16 1 -20 35 -26 45 -8 46 -9 26 -45 -21 -37 -18 -50
10 -50 21 0 25 -5 25 -28 0 -28 -1 -29 -190 -82 -104 -29 -195 -57 -201 -61
-8 -5 -9 -52 -3 -180 l9 -174 288 -3 287 -2 0 -129 0 -129 -284 6 -285 5 6
-164 c3 -90 7 -165 8 -166 1 -2 126 -8 278 -15 l277 -12 0 -128 0 -129 -107 6
c-188 10 -546 25 -609 25 l-60 0 -3 93 c-8 300 -50 1267 -55 1276 -4 6 16 17
46 25 29 9 152 45 273 80 121 36 226 65 234 65 9 1 11 -6 7 -19z m-2726 -401
l25 -199 -298 -177 c-163 -96 -296 -177 -294 -179 2 -2 145 -27 318 -54 173
-28 319 -52 324 -54 16 -4 64 -406 49 -406 -10 0 -921 192 -1021 215 l-23 5 0
-185 0 -185 -130 0 -130 0 0 685 0 685 130 0 130 0 0 -260 c0 -143 2 -260 5
-260 2 0 201 130 442 289 241 158 440 286 443 284 3 -3 16 -94 30 -204z m1026
-432 c133 -347 239 -633 235 -634 -3 -2 -77 -13 -163 -26 -142 -22 -158 -22
-163 -8 -4 9 -61 173 -126 366 -66 192 -124 354 -128 358 -9 9 -13 -15 -72
-458 -23 -176 -47 -325 -53 -331 -10 -10 -315 -60 -320 -52 -4 5 229 1367 234
1371 5 4 262 44 295 46 17 1 51 -81 261 -632z m-2468 -1113 c18 -12 20 -19 11
-30 -8 -10 -16 -11 -31 -3 -76 41 -136 -69 -63 -117 22 -14 27 -14 54 -1 25
12 32 13 41 2 16 -19 -25 -45 -70 -45 -44 0 -73 20 -90 59 -38 94 69 191 148
135z m352 1 c37 -19 50 -43 50 -95 0 -33 -6 -48 -29 -71 -65 -64 -171 -20
-171 71 0 51 12 75 48 94 35 20 66 20 102 1z m389 1 c65 -34 66 -151 2 -186
-50 -26 -122 -4 -146 45 -20 43 -19 63 5 103 31 50 85 65 139 38z m281 -71 l0
-85 50 0 c43 0 50 -3 50 -20 0 -18 -7 -20 -70 -20 l-70 0 0 105 c0 98 1 105
20 105 18 0 20 -7 20 -85z m630 72 c28 -14 38 -51 19 -74 -11 -12 -10 -17 4
-24 10 -6 17 -22 17 -39 0 -41 -32 -60 -102 -60 l-58 0 0 105 0 105 48 0 c26
0 58 -6 72 -13z m396 -18 c48 -45 36 -141 -22 -168 -57 -25 -114 -10 -139 39
-25 49 -19 88 20 127 32 32 40 35 76 30 23 -3 52 -15 65 -28z m391 -4 c17 -19
23 -39 23 -71 0 -63 -40 -104 -100 -104 -107 0 -140 144 -45 199 32 19 97 6
122 -24z m253 -12 l0 -47 49 48 c28 28 56 46 65 44 14 -2 11 -11 -18 -45 -20
-22 -36 -44 -36 -47 0 -3 16 -28 35 -55 41 -56 42 -61 15 -61 -11 0 -31 18
-50 46 -26 36 -34 43 -46 33 -8 -6 -14 -27 -14 -45 0 -27 -4 -34 -20 -34 -19
0 -20 7 -20 105 0 98 1 105 20 105 17 0 20 -7 20 -47z m358 -61 c3 -97 2 -102
-18 -102 -19 0 -20 6 -20 106 0 95 2 105 18 102 15 -3 17 -17 20 -106z m279
41 l48 -68 3 68 c3 59 5 67 22 67 19 0 20 -7 20 -105 0 -95 -2 -105 -18 -105
-11 0 -38 27 -68 68 l-49 67 -3 -67 c-2 -52 -6 -68 -17 -68 -12 0 -15 20 -15
105 0 129 9 133 77 38z m446 48 c7 -7 6 -15 -3 -26 -9 -11 -16 -13 -24 -5 -15
15 -57 12 -78 -7 -24 -22 -24 -77 2 -103 21 -21 37 -24 64 -14 24 9 20 44 -4
44 -13 0 -20 7 -20 20 0 17 7 20 40 20 l40 0 0 -48 c0 -43 -3 -50 -25 -60 -55
-25 -124 -8 -144 35 -14 30 -14 88 -1 113 24 44 120 64 153 31z m565 -33 c11
-29 29 -77 41 -105 20 -50 20 -53 2 -53 -10 0 -23 11 -29 25 -10 21 -18 25
-57 25 -39 0 -45 -3 -51 -25 -4 -16 -13 -25 -25 -25 -10 0 -19 2 -19 5 0 2 14
39 31 82 17 43 35 88 40 101 15 40 44 27 67 -30z m379 26 c18 -24 16 -79 -3
-98 -8 -9 -33 -19 -55 -22 -35 -6 -39 -10 -39 -35 0 -22 -5 -29 -20 -29 -19 0
-20 7 -20 106 l0 107 62 -6 c43 -4 66 -11 75 -23z m335 -4 c40 -49 10 -108
-60 -117 -38 -5 -42 -8 -42 -34 0 -19 -5 -29 -15 -29 -12 0 -15 18 -15 106 l0
106 57 -4 c43 -4 61 -10 75 -28z"/>
<path d="M516 1761 c-26 -28 -17 -79 17 -104 l27 -21 28 21 c53 39 34 123 -28
123 -15 0 -35 -9 -44 -19z"/>
<path d="M900 1753 c-35 -45 -9 -105 46 -105 55 0 84 72 44 112 -28 28 -64 25
-90 -7z"/>
<path d="M1830 1755 c0 -24 3 -26 33 -23 24 2 32 8 32 23 0 15 -8 21 -32 23
-30 3 -33 1 -33 -23z"/>
<path d="M1830 1676 c0 -24 4 -26 41 -26 36 0 40 2 37 23 -2 18 -10 23 -40 25
-35 3 -38 1 -38 -22z"/>
<path d="M2186 1758 c-23 -32 -20 -65 9 -94 29 -29 58 -26 88 8 22 27 22 49
-4 82 -26 33 -71 35 -93 4z"/>
<path d="M2577 1762 c-26 -29 -22 -77 10 -101 44 -36 93 -7 93 54 0 57 -67 87
-103 47z"/>
<path d="M4542 1730 c-15 -42 -16 -40 13 -40 28 0 34 24 12 55 -13 17 -15 16
-25 -15z"/>
<path d="M4880 1745 c0 -32 2 -35 30 -35 34 0 53 25 39 52 -6 11 -21 18 -39
18 -28 0 -30 -3 -30 -35z"/>
<path d="M5214 1766 c-12 -31 0 -51 30 -51 36 0 56 26 37 49 -17 20 -60 21
-67 2z"/>
</g>
</svg>
